# xmcd CD database file
#
# Track frame offsets:
#	150
#	27753
#	62525
#	92118
#	124704
#	160614
#	182987
#	210243
#	217342
#
# Disc length: 3231 seconds
#
# Revision: 1
# Processed by: cddbd v1.5.1PL0 Copyright (c) Steve Scherf et al.
# Submitted via: CDex 1.51
#
DISCID=770c9d09
DTITLE=Michel Longpré - Diversion collatérale
DYEAR=2004
DGENRE=Jazz
TTITLE0=Clapotis
TTITLE1=Les pas de sortie
TTITLE2=Diversion collatérale
TTITLE3=Mars
TTITLE4=Djigue jazz
TTITLE5=L'oiseau kiwi
TTITLE6=Almanda
TTITLE7=Fuguetto no. 1
TTITLE8=Blousillon
EXTD=YEAR: 2004
EXTT0=
EXTT1=
EXTT2=
EXTT3=
EXTT4=
EXTT5=
EXTT6=
EXTT7=
EXTT8=
PLAYORDER=
